<svg width="114" height="36" viewBox="0 0 114 36" fill="none" xmlns="http://www.w3.org/2000/svg">
<rect width="36" height="36" rx="18" fill="#2063FF"/>
<path d="M15.4294 16.6432L17.49 15.8808C17.8847 15.7421 18.1504 15.5285 18.2869 15.2397L19.9605 16.6836C20.2945 16.957 20.6152 17.0744 20.9226 17.0359L20.5127 19.2423C20.4406 19.6658 20.5033 20.0086 20.7006 20.2704L18.6171 21.0213C18.2225 21.1599 17.9644 21.3717 17.8429 21.6566L16.1466 20.2184C15.8278 19.9566 15.5148 19.8372 15.2074 19.8603L15.5944 17.654C15.6666 17.2419 15.6115 16.905 15.4294 16.6432ZM10.1183 23.5106L12.9759 22.8348C13.234 22.7733 13.4864 22.6674 13.733 22.5172L13.3801 23.6608C13.2321 24.146 13.2454 24.6754 13.4199 25.2491C13.5908 25.8344 13.8678 26.2888 14.2511 26.6123L16.4996 28.5414C16.879 28.8649 17.2528 28.9707 17.6209 28.8591C18.0005 28.7474 18.2642 28.447 18.4122 27.958L19.2604 25.099C19.3363 24.8372 19.3666 24.5696 19.3515 24.2962L20.1655 25.1567C20.5108 25.5302 20.9719 25.7844 21.5487 25.9191C22.1255 26.0694 22.6527 26.0578 23.1316 25.8845L25.8806 24.8737C26.3587 24.7004 26.6415 24.4193 26.7289 24.0304C26.8279 23.6454 26.7039 23.2662 26.3587 22.8927L24.3322 20.7209C24.1467 20.5207 23.938 20.359 23.7061 20.2357L24.8272 19.9527C25.3205 19.841 25.7709 19.5676 26.1768 19.1326C26.5942 18.6975 26.8448 18.2239 26.9278 17.7117L27.446 14.7718C27.545 14.2751 27.446 13.89 27.1499 13.6166C26.8689 13.3394 26.4818 13.2643 25.9886 13.3914L23.1316 14.0614C22.873 14.1269 22.6286 14.2404 22.3967 14.4022L22.7267 13.2412C22.8748 12.756 22.8641 12.2266 22.6928 11.6528C22.5296 11.0637 22.2527 10.6074 21.8618 10.2841L19.6133 8.36064C19.23 8.03728 18.8543 7.9313 18.4862 8.04298C18.1067 8.15466 17.8429 8.45313 17.695 8.93822L16.8468 11.803C16.7746 12.0649 16.75 12.3325 16.7728 12.6059L15.9645 11.7453C15.6191 11.3718 15.1524 11.1158 14.5641 10.9771C13.9835 10.827 13.4598 10.8405 12.993 11.0176L10.2322 12.0225C9.76537 12.1996 9.48271 12.4807 9.38397 12.8658C9.29674 13.2547 9.42571 13.6359 9.77108 14.0094L11.7805 16.1754C11.9627 16.3756 12.1771 16.545 12.4237 16.6836L11.2796 16.9435C10.79 17.0552 10.3423 17.3305 9.93618 17.7695C9.53016 18.2046 9.27774 18.6782 9.17909 19.1903L8.66105 22.1245C8.57756 22.625 8.6763 23.012 8.95709 23.2853C9.24171 23.5587 9.62881 23.6339 10.1183 23.5106Z" fill="#FDFDFD"/>
<path d="M109.22 34.222V26.3118H109.124C108.926 26.7656 108.645 27.1907 108.28 27.587C107.916 27.9833 107.459 28.3029 106.909 28.5458C106.366 28.7887 105.723 28.9102 104.982 28.9102C103.895 28.9102 102.908 28.6289 102.019 28.0664C101.131 27.5039 100.421 26.6602 99.8907 25.5352C99.3601 24.4102 99.0949 23.0135 99.0949 21.3452C99.0949 19.613 99.3697 18.1875 99.9194 17.0689C100.469 15.9503 101.188 15.1225 102.077 14.5856C102.972 14.0487 103.934 13.7802 104.963 13.7802C105.736 13.7802 106.398 13.9144 106.947 14.1829C107.497 14.445 107.951 14.7838 108.309 15.1992C108.667 15.6147 108.939 16.0462 109.124 16.4936H109.268V13.972H113.908V34.222H109.22ZM106.612 25.2571C107.181 25.2571 107.667 25.0973 108.069 24.7777C108.472 24.4517 108.782 23.9947 108.999 23.4066C109.217 22.8186 109.325 22.1282 109.325 21.3356C109.325 20.5302 109.217 19.8367 108.999 19.255C108.788 18.6733 108.478 18.2259 108.069 17.9127C107.667 17.5995 107.181 17.4429 106.612 17.4429C106.03 17.4429 105.538 17.6027 105.135 17.9223C104.733 18.2419 104.426 18.6925 104.215 19.2742C104.01 19.8558 103.908 20.543 103.908 21.3356C103.908 22.1282 104.014 22.8186 104.224 23.4066C104.435 23.9947 104.739 24.4517 105.135 24.7777C105.538 25.0973 106.03 25.2571 106.612 25.2571Z" fill="#272727"/>
<path d="M93.4962 28.6992V13.972H98.1847V28.6992H93.4962ZM95.8452 12.2557C95.1869 12.2557 94.6212 12.0384 94.1482 11.6037C93.6751 11.1627 93.4386 10.6321 93.4386 10.0121C93.4386 9.39846 93.6751 8.87431 94.1482 8.43965C94.6212 7.9986 95.1869 7.77808 95.8452 7.77808C96.51 7.77808 97.0757 7.9986 97.5423 8.43965C98.0153 8.87431 98.2519 9.39846 98.2519 10.0121C98.2519 10.6321 98.0153 11.1627 97.5423 11.6037C97.0757 12.0384 96.51 12.2557 95.8452 12.2557Z" fill="#272727"/>
<path d="M92.0779 9.06288V28.6992H87.3893V9.06288H92.0779Z" fill="#272727"/>
<path d="M79.571 28.9773C78.0305 28.9773 76.701 28.6737 75.5824 28.0664C74.4702 27.4528 73.6136 26.5803 73.0128 25.4489C72.4183 24.3111 72.1211 22.9592 72.1211 21.3931C72.1211 19.8718 72.4215 18.5423 73.0224 17.4045C73.6232 16.2603 74.4702 15.3718 75.5632 14.739C76.6562 14.0998 77.9442 13.7802 79.4272 13.7802C80.4755 13.7802 81.4343 13.9432 82.3036 14.2692C83.1729 14.5952 83.924 15.0778 84.5568 15.717C85.1896 16.3562 85.6818 17.1456 86.0334 18.0853C86.3849 19.0185 86.5607 20.0892 86.5607 21.2973V22.467H73.7606V19.744H82.1981C82.1917 19.2454 82.0735 18.8012 81.8434 18.4112C81.6133 18.0213 81.2969 17.7177 80.8942 17.5004C80.4979 17.2767 80.0408 17.1648 79.5231 17.1648C78.9989 17.1648 78.5291 17.283 78.1136 17.5196C77.6981 17.7497 77.3689 18.0661 77.126 18.4688C76.8832 18.8651 76.7553 19.3157 76.7425 19.8207V22.5916C76.7425 23.1925 76.8608 23.7198 77.0973 24.1737C77.3338 24.6211 77.6694 24.9695 78.104 25.2188C78.5387 25.4681 79.0565 25.5927 79.6573 25.5927C80.0728 25.5927 80.4499 25.5352 80.7887 25.4201C81.1275 25.3051 81.4183 25.1357 81.6612 24.912C81.9041 24.6882 82.0863 24.4134 82.2077 24.0874L86.5128 24.212C86.3338 25.1772 85.9407 26.0178 85.3334 26.7337C84.7326 27.4432 83.9432 27.9961 82.9652 28.3924C81.9872 28.7823 80.8558 28.9773 79.571 28.9773Z" fill="#272727"/>
<path d="M72.0187 13.972V17.4237H62.7279V13.972H72.0187ZM64.6743 10.4436H69.3628V24.0682C69.3628 24.3558 69.4076 24.5892 69.4971 24.7681C69.593 24.9407 69.7304 25.0654 69.9094 25.1421C70.0883 25.2124 70.3025 25.2475 70.5518 25.2475C70.7307 25.2475 70.9193 25.2316 71.1175 25.1996C71.322 25.1612 71.4754 25.1293 71.5777 25.1037L72.2872 28.4883C72.0635 28.5522 71.7471 28.6321 71.338 28.728C70.9353 28.8239 70.4527 28.8846 69.8902 28.9102C68.7908 28.9613 67.8479 28.8335 67.0617 28.5267C66.2819 28.2134 65.6842 27.7277 65.2687 27.0693C64.8597 26.4109 64.6615 25.5831 64.6743 24.586V10.4436Z" fill="#272727"/>
<path d="M52.8482 20.3001V28.6992H48.1596V13.972H52.618V16.6758H52.781C53.107 15.7745 53.6631 15.0682 54.4494 14.5568C55.2356 14.0391 56.172 13.7802 57.2587 13.7802C58.2942 13.7802 59.1923 14.0135 59.9529 14.4801C60.72 14.9404 61.3144 15.586 61.7363 16.4169C62.1646 17.2415 62.3755 18.2067 62.3691 19.3125V28.6992H57.6805V20.233C57.6869 19.4148 57.4792 18.7756 57.0573 18.3154C56.6418 17.8551 56.0634 17.625 55.3219 17.625C54.8297 17.625 54.395 17.7337 54.0179 17.951C53.6472 18.162 53.3595 18.4656 53.155 18.8619C52.9568 19.2582 52.8545 19.7376 52.8482 20.3001Z" fill="#272727"/>
<path d="M46.7461 9.06288V28.6992H42V9.06288H46.7461Z" fill="#272727"/>
</svg>
